<svg version="1.1" id="Layer_1" xmlns="http://www.w3.org/2000/svg" xmlns:xlink="http://www.w3.org/1999/xlink" x="0px" y="0px"
	 viewBox="0 0 170.6 111.9" style="enable-background:new 0 0 170.6 111.9;" xml:space="preserve">
<style type="text/css">
	.st0{fill:#FFFFFF;}
	.st1{fill:#345D9D;}
</style>
<circle class="st0" cx="85.3" cy="56" r="36.8"/>
<path class="st1" d="M85.3,14.7C62.5,14.7,44,33.2,44,56s18.5,41.3,41.3,41.3s41.3-18.5,41.3-41.3l0,0l0,0
	c0.1-22.7-18.3-41.2-41.1-41.3c0,0,0,0,0,0H85.3z M86,57.4l-4.3,14.5h23c0.6,0,1.2,0.5,1.2,1.1c0,0,0,0,0,0v0.4l-2,6.9
	c-0.2,0.7-0.8,1.1-1.5,1.1H67.2l5.9-20.1l-6.6,2l1.5-4.6l6.6-2l8.3-28.2c0.2-0.7,0.8-1.1,1.5-1.1h8.9c0.6,0,1.2,0.5,1.2,1.1
	c0,0,0,0,0,0v0.4l-7,23.8l6.6-2l-1.4,4.8L86,57.4z"/>
</svg>
